Normalized EMG Linear Envelopes
nRows=271
nColumns=4

endheader
time	 med_gas_r	  soleus_r	 tib_ant_r	
2.9605	  0.079034	  0.091812	  0.047797	
2.99376	  0.081763	  0.096206	  0.048445	
3.02702	  0.084006	  0.099432	  0.049134	
3.06029	  0.085459	  0.100765	  0.049757	
3.09355	  0.086287	  0.099999	  0.050369	
3.12682	  0.086891	  0.097479	  0.051164	
3.16008	  0.087547	  0.093945	  0.052321	
3.19334	  0.088221	  0.090259	  0.053810	
3.22661	  0.088685	  0.087166	  0.055289	
3.25987	  0.088737	  0.085143	  0.056228	
3.29314	  0.088308	  0.084380	  0.056211	
3.3264	  0.087397	  0.084830	  0.055172	
3.35966	  0.086008	  0.086268	  0.053413	
3.39293	  0.084229	  0.088351	  0.051394	
3.42619	  0.082352	  0.090713	  0.049508	
3.45946	  0.080869	  0.093122	  0.047989	
3.49272	  0.080285	  0.095583	  0.046961	
3.52598	  0.080905	  0.098269	  0.046502	
3.55925	  0.082720	  0.101284	  0.046657	
3.59251	  0.085439	  0.104453	  0.047403	
3.62578	  0.088579	  0.107335	  0.048598	
3.65904	  0.091580	  0.109448	  0.049951	
3.6923	  0.093965	  0.110517	  0.051042	
3.72557	  0.095497	  0.110534	  0.051470	
3.75883	  0.096227	  0.109648	  0.051100	
3.7921	  0.096370	  0.108040	  0.050250	
3.82536	  0.096091	  0.105920	  0.049662	
3.85862	  0.095405	  0.103643	  0.050293	
3.89189	  0.094267	  0.101730	  0.053125	
3.92515	  0.092785	  0.100720	  0.059081	
3.95842	  0.091351	  0.100924	  0.068889	
3.99168	  0.090596	  0.102306	  0.082674	
4.02494	  0.091221	  0.104548	  0.099481	
4.05821	  0.093832	  0.107224	  0.117250	
4.09147	  0.098874	  0.109937	  0.133612	
4.12474	  0.106684	  0.112408	  0.147057	
4.158	  0.117524	  0.114538	  0.157563	
4.19126	  0.131498	  0.116444	  0.166139	
4.22453	  0.148321	  0.118412	  0.173838	
4.25779	  0.167082	  0.120779	  0.181274	
4.29106	  0.186196	  0.123813	  0.189038	
4.32432	  0.203618	  0.127611	  0.198375	
4.35758	  0.217320	  0.132025	  0.211193	
4.39085	  0.225995	  0.136668	  0.229236	
4.42411	  0.229782	  0.141024	  0.253041	
4.45738	  0.230562	  0.144610	  0.281478	
4.49064	  0.231374	  0.147124	  0.312194	
4.5239	  0.235001	  0.148526	  0.342625	
4.55717	  0.242466	  0.149029	  0.370875	
4.59043	  0.252509	  0.148995	  0.395914	
4.6237	  0.262506	  0.148725	  0.417156	
4.65696	  0.270181	  0.148298	  0.434048	
4.69022	  0.274743	  0.147617	  0.446173	
4.72349	  0.276610	  0.146714	  0.453708	
4.75675	  0.276266	  0.146001	  0.457576	
4.79002	  0.273595	  0.146114	  0.458996	
4.82328	  0.268403	  0.147366	  0.458867	
4.85654	  0.261418	  0.149318	  0.457603	
4.88981	  0.254547	  0.150954	  0.455391	
4.92307	  0.250037	  0.151403	  0.452334	
4.95634	  0.249399	  0.150555	  0.448238	
4.9896	  0.252970	  0.149046	  0.442517	
5.02286	  0.260095	  0.147707	  0.434645	
5.05613	  0.269302	  0.147045	  0.424748	
5.08939	  0.278383	  0.147148	  0.413563	
5.12266	  0.284907	  0.147892	  0.401812	
5.15592	  0.287375	  0.149093	  0.389869	
5.18918	  0.286208	  0.150496	  0.378154	
5.22245	  0.283512	  0.151770	  0.367635	
5.25571	  0.281575	  0.152676	  0.359741	
5.28898	  0.281200	  0.153271	  0.355896	
5.32224	  0.281209	  0.153914	  0.357268	
5.3555	  0.279489	  0.155004	  0.364741	
5.38877	  0.274688	  0.156659	  0.378677	
5.42203	  0.267164	  0.158643	  0.398547	
5.4553	  0.258551	  0.160585	  0.422938	
5.48856	  0.250628	  0.162307	  0.449978	
5.52182	  0.244691	  0.163957	  0.477492	
5.55509	  0.241822	  0.165837	  0.502591	
5.58835	  0.243257	  0.168084	  0.521461	
5.62162	  0.249974	  0.170509	  0.530306	
5.65488	  0.261701	  0.172785	  0.527096	
5.68814	  0.276454	  0.174826	  0.512671	
5.72141	  0.291409	  0.176990	  0.490245	
5.75467	  0.304533	  0.179856	  0.463828	
5.78794	  0.315564	  0.183773	  0.436825	
5.8212	  0.325503	  0.188597	  0.411602	
5.85446	  0.335196	  0.193850	  0.389886	
5.88773	  0.344365	  0.199093	  0.373285	
5.92099	  0.351870	  0.204149	  0.363256	
5.95426	  0.356755	  0.209053	  0.360336	
5.98752	  0.358951	  0.213881	  0.363281	
6.02078	  0.359022	  0.218641	  0.369020	
6.05405	  0.357391	  0.223195	  0.373776	
6.08731	  0.353986	  0.227135	  0.374710	
6.12058	  0.348648	  0.229722	  0.371072	
6.15384	  0.341741	  0.230060	  0.364259	
6.1871	  0.334200	  0.227520	  0.356907	
6.22037	  0.326978	  0.222162	  0.351555	
6.25363	  0.320518	  0.214855	  0.349506	
6.2869	  0.314720	  0.206968	  0.350359	
6.32016	  0.309269	  0.199813	  0.352378	
6.35342	  0.303932	  0.194201	  0.353380	
6.38669	  0.298704	  0.190429	  0.351624	
6.41995	  0.293930	  0.188565	  0.346351	
6.45322	  0.290394	  0.188638	  0.337931	
6.48648	  0.289184	  0.190501	  0.327613	
6.51974	  0.291197	  0.193629	  0.316866	
6.55301	  0.296437	  0.197212	  0.306575	
6.58627	  0.303497	  0.200513	  0.296688	
6.61954	  0.309762	  0.203093	  0.286696	
6.6528	  0.312526	  0.204689	  0.276536	
6.68606	  0.310478	  0.205046	  0.266965	
6.71933	  0.304450	  0.204022	  0.258907	
6.75259	  0.296801	  0.201862	  0.252449	
6.78586	  0.289935	  0.199258	  0.246616	
6.81912	  0.285166	  0.197071	  0.240282	
6.85238	  0.282664	  0.196028	  0.233377	
6.88565	  0.282193	  0.196614	  0.227227	
6.91891	  0.283836	  0.199037	  0.223781	
6.95218	  0.288096	  0.203051	  0.224488	
6.98544	  0.295271	  0.207733	  0.229793	
7.0187	  0.304569	  0.211548	  0.239518	
7.05197	  0.313774	  0.212818	  0.253539	
7.08523	  0.319995	  0.210338	  0.271991	
7.1185	  0.321118	  0.203825	  0.294803	
7.15176	  0.316876	  0.194051	  0.321128	
7.18502	  0.308760	  0.182713	  0.349330	
7.21829	  0.299051	  0.172071	  0.377481	
7.25155	  0.289910	  0.164355	  0.403698	
7.28482	  0.283059	  0.161057	  0.425923	
7.31808	  0.279762	  0.162392	  0.441663	
7.35134	  0.280600	  0.167267	  0.448465	
7.38461	  0.285032	  0.173849	  0.445049	
7.41787	  0.291335	  0.180414	  0.432058	
7.45114	  0.297316	  0.185947	  0.411772	
7.4844	  0.301468	  0.190205	  0.387216	
7.51766	  0.303642	  0.193425	  0.361470	
7.55093	  0.304599	  0.196041	  0.337284	
7.58419	  0.304888	  0.198513	  0.316561	
7.61746	  0.304197	  0.201128	  0.299789	
7.65072	  0.301903	  0.203805	  0.286149	
7.68398	  0.298252	  0.206126	  0.274617	
7.71725	  0.294725	  0.207676	  0.265270	
7.75051	  0.292984	  0.208417	  0.259560	
7.78378	  0.293408	  0.208747	  0.259179	
7.81704	  0.294878	  0.209236	  0.264502	
7.8503	  0.296077	  0.210305	  0.273901	
7.88357	  0.296812	  0.212105	  0.284460	
7.91683	  0.297871	  0.214600	  0.293429	
7.9501	  0.299765	  0.217751	  0.299418	
7.98336	  0.301987	  0.221581	  0.302650	
8.01662	  0.303632	  0.226054	  0.304300	
8.04989	  0.304454	  0.230837	  0.305439	
8.08315	  0.305010	  0.235173	  0.306266	
8.11642	  0.305840	  0.238092	  0.306183	
8.14968	  0.306770	  0.238902	  0.304635	
8.18294	  0.307144	  0.237697	  0.301977	
8.21621	  0.306605	  0.235506	  0.299409	
8.24947	  0.305515	  0.233861	  0.297856	
8.28274	  0.304567	  0.233943	  0.296848	
8.316	  0.304058	  0.235871	  0.294636	
8.34926	  0.303613	  0.238647	  0.289619	
8.38253	  0.302614	  0.240745	  0.281713	
8.41579	  0.300829	  0.240788	  0.272421	
8.44906	  0.298489	  0.237854	  0.263758	
8.48232	  0.295742	  0.231535	  0.257259	
8.51558	  0.292226	  0.222067	  0.253782	
8.54885	  0.287458	  0.210527	  0.253704	
8.58211	  0.281713	  0.198717	  0.256830	
8.61538	  0.276309	  0.188628	  0.262121	
8.64864	  0.272761	  0.181793	  0.267899	
8.6819	  0.271615	  0.178956	  0.272660	
8.71517	  0.272224	  0.180139	  0.275835	
8.74843	  0.273701	  0.184899	  0.277756	
8.7817	  0.275948	  0.192574	  0.279009	
8.81496	  0.279621	  0.202402	  0.280036	
8.84822	  0.285148	  0.213521	  0.281388	
8.88149	  0.291936	  0.224888	  0.284056	
8.91475	  0.298647	  0.235288	  0.289043	
8.94802	  0.304178	  0.243620	  0.296322	
8.98128	  0.308260	  0.249328	  0.304254	
9.01454	  0.311083	  0.252569	  0.310266	
9.04781	  0.312512	  0.253851	  0.312401	
9.08107	  0.311869	  0.253440	  0.310486	
9.11434	  0.308563	  0.251103	  0.306066	
9.1476	  0.302819	  0.246376	  0.301314	
9.18086	  0.295623	  0.239071	  0.297902	
9.21413	  0.287951	  0.229571	  0.296598	
9.24739	  0.280126	  0.218722	  0.297584	
9.28066	  0.271995	  0.207471	  0.300928	
9.31392	  0.263720	  0.196543	  0.306641	
9.34718	  0.256361	  0.186427	  0.314241	
9.38045	  0.251635	  0.177644	  0.322266	
9.41371	  0.251038	  0.170994	  0.328393	
9.44698	  0.255059	  0.167480	  0.330366	
9.48024	  0.263086	  0.167834	  0.327217	
9.5135	  0.273840	  0.171933	  0.319813	
9.54677	  0.285730	  0.178585	  0.310280	
9.58003	  0.296880	  0.185967	  0.300846	
9.6133	  0.305238	  0.192541	  0.293097	
9.64656	  0.309260	  0.197816	  0.287956	
9.67982	  0.308906	  0.202450	  0.285898	
9.71309	  0.305942	  0.207632	  0.286910	
9.74635	  0.302961	  0.214197	  0.290386	
9.77962	  0.301735	  0.222003	  0.295310	
9.81288	  0.302374	  0.229894	  0.300627	
9.84614	  0.304016	  0.236213	  0.305408	
9.87941	  0.306124	  0.239609	  0.308792	
9.91267	  0.308912	  0.239701	  0.309989	
9.94594	  0.312567	  0.237260	  0.308511	
9.9792	  0.316425	  0.233789	  0.304375	
10.0125	  0.319271	  0.230738	  0.298033	
10.0457	  0.320435	  0.228829	  0.290213	
10.079	  0.320323	  0.227844	  0.281906	
10.1123	  0.319765	  0.226909	  0.274445	
10.1455	  0.319036	  0.225010	  0.269338	
10.1788	  0.317805	  0.221448	  0.267750	
10.212	  0.315905	  0.216093	  0.269947	
10.2453	  0.313715	  0.209402	  0.275049	
10.2786	  0.311501	  0.202256	  0.281215	
10.3118	  0.308619	  0.195680	  0.286258	
10.3451	  0.303806	  0.190566	  0.288540	
10.3784	  0.296465	  0.187473	  0.287794	
10.4116	  0.287582	  0.186522	  0.285249	
10.4449	  0.279284	  0.187385	  0.282733	
10.4782	  0.273492	  0.189431	  0.281265	
10.5114	  0.270989	  0.192035	  0.280182	
10.5447	  0.271625	  0.194869	  0.277535	
10.578	  0.275069	  0.197939	  0.271474	
10.6112	  0.281029	  0.201351	  0.261607	
10.6445	  0.288674	  0.205058	  0.249326	
10.6777	  0.296152	  0.208830	  0.236953	
10.711	  0.301210	  0.212376	  0.226444	
10.7443	  0.302673	  0.215449	  0.218641	
10.7775	  0.301383	  0.217875	  0.213415	
10.8108	  0.299561	  0.219571	  0.210227	
10.8441	  0.299071	  0.220510	  0.208429	
10.8773	  0.300149	  0.220593	  0.207228	
10.9106	  0.301652	  0.219506	  0.205779	
10.9439	  0.302364	  0.216732	  0.203619	
10.9771	  0.301926	  0.211811	  0.201020	
11.0104	  0.300568	  0.204654	  0.198688	
11.0436	  0.298267	  0.195750	  0.197007	
11.0769	  0.294580	  0.186171	  0.195614	
11.1102	  0.289451	  0.177368	  0.193777	
11.1434	  0.283924	  0.170750	  0.191103	
11.1767	  0.279604	  0.167114	  0.187770	
11.21	  0.277059	  0.166224	  0.184123	
11.2432	  0.274666	  0.166868	  0.180245	
11.2765	  0.269281	  0.167451	  0.176100	
11.3098	  0.258504	  0.166788	  0.172029	
11.343	  0.242721	  0.164530	  0.168909	
11.3763	  0.225173	  0.160989	  0.167626	
11.4096	  0.209918	  0.156604	  0.168307	
11.4428	  0.199366	  0.151629	  0.170109	
11.4761	  0.193210	  0.146323	  0.171831	
11.5093	  0.189282	  0.141345	  0.172852	
11.5426	  0.185297	  0.137769	  0.173590	
11.5759	  0.180100	  0.136521	  0.175140	
11.6091	  0.173804	  0.137687	  0.178467	
11.6424	  0.167200	  0.140316	  0.183778	
11.6757	  0.161188	  0.142927	  0.190432	
11.7089	  0.156615	  0.144295	  0.197258	
11.7422	  0.154295	  0.143870	  0.202961	
11.7755	  0.154812	  0.141624	  0.206361	
11.8087	  0.158089	  0.137637	  0.206477	
11.842	  0.163178	  0.131929	  0.202681	
11.8752	  0.168646	  0.124618	  0.194959	
11.9085	  0.173359	  0.116139	  0.184084	
11.9418	  0.177059	  0.107248	  0.171485	
